<?xml version="1.0" standalone="no"?>
<!DOCTYPE svg PUBLIC "-//W3C//DTD SVG 20010904//EN"
 "http://www.w3.org/TR/2001/REC-SVG-20010904/DTD/svg10.dtd">
<svg version="1.0" xmlns="http://www.w3.org/2000/svg"
 width="512.000000pt" height="512.000000pt" viewBox="0 0 512.000000 512.000000"
 preserveAspectRatio="xMidYMid meet">
<metadata>
Created by potrace 1.14, written by Peter Selinger 2001-2017
</metadata>
<g transform="translate(0.000000,512.000000) scale(0.100000,-0.100000)"
fill="#000000" stroke="none">
<path d="M1809 5097 c-33 -27 -52 -43 -109 -87 -45 -35 -68 -57 -99 -96 -9
-11 -26 -26 -39 -33 -12 -6 -22 -18 -22 -26 0 -8 -4 -15 -10 -15 -5 0 -35 -25
-66 -55 -31 -30 -65 -57 -75 -60 -11 -4 -17 -11 -14 -16 4 -5 1 -9 -5 -9 -7 0
-10 -7 -7 -15 4 -9 -16 -29 -61 -59 -37 -25 -76 -56 -86 -70 -10 -14 -22 -26
-26 -26 -7 0 -108 -58 -142 -82 -10 -7 -18 -18 -18 -25 0 -7 -4 -13 -9 -13 -5
0 -16 -15 -25 -32 -9 -18 -22 -42 -29 -52 -59 -95 -77 -128 -82 -152 -3 -16
-9 -40 -12 -54 -4 -14 -6 -56 -5 -94 1 -39 -3 -75 -8 -81 -17 -20 -21 -115 -6
-138 9 -14 15 -52 15 -100 1 -43 6 -87 11 -97 6 -10 10 -26 10 -36 0 -9 11
-32 25 -50 14 -18 28 -50 31 -71 3 -21 8 -41 10 -44 4 -7 13 -79 19 -144 1
-22 4 -40 5 -40 2 0 3 -109 1 -167 -1 -30 -9 -44 -40 -74 -38 -35 -69 -93 -77
-144 -2 -14 -6 -36 -10 -50 -14 -50 -12 -264 2 -319 7 -29 12 -57 9 -61 -2 -4
0 -22 5 -41 17 -63 21 -103 21 -189 0 -139 55 -301 126 -368 60 -56 128 -70
225 -47 l58 13 25 -32 c14 -18 25 -38 25 -44 0 -7 4 -12 8 -12 5 0 9 -6 9 -12
1 -22 55 -232 66 -258 6 -14 10 -28 9 -32 -1 -3 6 -30 14 -59 9 -29 18 -60 20
-68 11 -46 24 -95 49 -180 38 -131 33 -190 -21 -257 -21 -27 -42 -51 -45 -54
-4 -3 -42 -57 -85 -120 -43 -63 -86 -124 -96 -134 -10 -11 -18 -26 -18 -33 0
-7 -4 -13 -10 -13 -5 0 -10 -9 -10 -20 0 -11 -4 -20 -9 -20 -5 0 -24 -24 -41
-54 -26 -47 -44 -62 -118 -107 -48 -29 -89 -55 -92 -59 -9 -12 -85 -52 -135
-72 -27 -11 -61 -25 -75 -31 -14 -5 -28 -10 -32 -9 -5 1 -8 -3 -8 -8 0 -5 -3
-9 -8 -9 -4 1 -9 0 -12 -1 -3 -1 -12 -3 -20 -5 -42 -9 -102 -36 -122 -55 l-22
-20 2192 0 2193 0 -3 97 -3 97 -40 14 c-22 8 -78 29 -125 48 -47 18 -139 52
-205 74 -66 22 -129 45 -140 50 -11 5 -33 12 -49 14 -120 20 -135 26 -180 77
-24 27 -73 98 -108 157 -67 114 -73 124 -114 217 -14 33 -42 81 -60 106 -33
45 -45 101 -25 113 5 3 12 17 15 30 3 14 11 38 18 53 6 15 12 30 13 33 0 3 15
48 32 100 18 53 35 111 38 129 3 19 8 37 10 41 2 3 6 17 9 31 3 13 7 35 10 49
3 14 9 45 12 70 3 25 7 56 9 70 2 14 7 66 10 115 4 50 9 91 10 93 2 2 30 4 62
6 114 5 171 65 199 211 2 11 6 31 9 45 7 36 23 142 24 160 0 8 3 51 6 95 3 44
8 118 10 165 3 47 8 126 11 177 5 77 3 101 -15 158 -32 98 -86 175 -122 175
-10 0 -21 5 -24 10 -4 6 -10 8 -15 5 -12 -8 -47 28 -42 43 2 7 -2 12 -9 12 -7
0 -10 3 -6 6 3 4 1 21 -6 38 -7 17 -11 51 -10 76 2 48 11 135 13 135 1 0 4 11
5 25 4 27 13 65 15 65 1 0 3 7 5 15 3 8 6 22 8 30 2 8 7 22 11 31 4 9 6 20 5
25 -3 20 1 35 10 30 5 -3 12 1 15 10 3 8 2 12 -4 9 -13 -8 -13 1 1 27 6 12 7
18 1 14 -5 -3 -13 1 -16 10 -3 8 -2 12 4 9 6 -3 10 -1 10 5 0 6 5 8 11 4 8 -4
8 -1 1 12 -5 11 -8 27 -7 37 2 9 -2 17 -8 17 -7 0 -5 5 3 10 8 5 10 10 5 10
-6 0 -16 9 -23 20 -10 16 -10 20 0 18 7 -2 16 -7 20 -12 3 -5 16 -11 28 -13
18 -3 20 0 15 19 -7 23 -7 23 9 3 16 -20 17 -20 14 5 -2 14 -8 25 -15 25 -6 0
-15 4 -20 9 -5 5 -3 6 5 2 7 -4 12 -1 12 9 0 10 5 14 13 9 6 -3 0 6 -16 20
-16 16 -24 32 -20 39 4 7 -1 6 -10 -2 -15 -12 -17 -12 -11 4 5 12 4 16 -3 12
-6 -4 -13 0 -17 8 -3 8 -1 15 5 15 6 0 7 5 3 12 -4 7 -3 8 5 4 6 -4 8 -12 5
-18 -4 -6 -1 -9 7 -6 8 3 13 12 13 21 -1 14 1 14 22 0 l23 -15 -15 31 c-8 17
-21 34 -27 38 -7 5 -21 19 -32 32 -17 20 -18 23 -3 20 9 -2 16 1 15 6 -1 6 -7
9 -13 9 -6 -1 -11 5 -11 12 0 9 8 12 26 7 26 -6 26 -6 -4 18 -45 35 -55 52
-43 67 8 9 -2 25 -39 62 -28 28 -56 50 -63 50 -10 0 -10 3 0 16 11 13 10 16
-8 21 -12 3 -22 10 -22 15 0 5 -6 6 -12 2 -10 -6 -10 -5 -1 7 10 12 10 18 0
28 -10 11 -8 11 11 2 28 -15 44 -11 48 11 1 11 -3 15 -13 11 -12 -5 -12 -7 -1
-15 10 -8 10 -9 -1 -6 -19 5 -21 41 -4 56 10 10 13 10 13 1 0 -7 2 -10 5 -7 9
8 -6 38 -16 32 -5 -3 -9 1 -9 10 0 8 -13 20 -30 28 -16 7 -30 17 -30 21 0 5
-5 5 -10 2 -6 -3 -10 1 -10 10 0 9 -4 13 -10 10 -5 -3 -10 1 -10 9 0 14 -19
21 -43 17 -5 -1 -6 3 -2 9 3 5 2 10 -2 10 -5 0 -9 9 -10 20 -2 19 0 19 27 5
44 -23 49 -18 10 9 -25 17 -39 21 -47 14 -9 -7 -13 -7 -13 0 0 6 6 12 13 15 8
3 6 10 -8 21 -13 11 -15 14 -4 11 9 -3 21 1 28 9 7 9 24 13 42 11 17 -3 27 0
24 5 -4 6 -13 10 -21 10 -8 0 -14 5 -14 11 0 5 6 7 13 3 9 -6 9 -5 0 8 -7 8
-10 18 -6 21 3 4 -4 7 -16 7 -14 0 -20 4 -15 12 5 8 0 9 -14 6 -12 -4 -22 -2
-22 3 0 5 -5 9 -11 9 -5 0 -7 -6 -3 -12 6 -10 4 -10 -7 -2 -8 6 -22 10 -32 9
-14 -3 -17 1 -12 18 5 17 4 19 -4 7 -8 -12 -14 -13 -30 -3 -15 10 -21 10 -25
0 -5 -9 -7 -9 -12 1 -3 6 -14 12 -25 12 -21 0 -25 15 -7 26 6 4 8 3 4 -4 -4
-7 3 -10 21 -9 46 4 31 21 -20 23 -35 2 -53 8 -68 26 -11 12 -18 17 -14 11 3
-7 1 -13 -5 -13 -6 0 -8 -5 -4 -12 5 -9 2 -9 -9 1 -27 21 -21 49 10 53 14 2
28 10 30 18 4 12 3 13 -5 1 -6 -8 -19 -12 -30 -9 -10 3 -27 1 -36 -4 -10 -5
-16 -5 -16 0 0 6 -12 13 -26 16 -25 7 -26 8 -8 21 13 9 23 10 31 4 7 -7 14 -6
18 1 4 6 13 9 21 6 8 -3 14 -2 14 3 0 16 -11 18 -53 10 -50 -9 -73 6 -25 17
18 4 38 9 43 10 6 2 21 6 35 9 14 4 35 7 48 8 12 1 22 5 22 10 0 4 5 5 10 2 6
-3 10 -2 10 4 0 5 9 8 20 6 11 -2 22 0 25 5 8 12 -114 3 -130 -10 -12 -10 -16
-9 -21 3 -5 14 -101 16 -892 16 l-887 1 -26 -23z m2129 -313 c-4 -11 -28 -14
-28 -4 0 8 22 20 28 14 2 -1 2 -6 0 -10z m107 -263 c3 -5 2 -12 -3 -15 -5 -3
-9 1 -9 9 0 17 3 19 12 6z"/>
<path d="M3640 5046 c0 -2 7 -7 16 -10 8 -3 12 -2 9 4 -6 10 -25 14 -25 6z"/>
<path d="M3706 5038 c3 -5 10 -6 15 -3 13 9 11 12 -6 12 -8 0 -12 -4 -9 -9z"/>
<path d="M3950 4731 c0 -5 -6 -8 -12 -7 -7 0 -13 -3 -13 -8 0 -12 55 -16 74
-6 10 6 10 8 -3 13 -11 5 -15 3 -10 -4 4 -7 1 -10 -7 -7 -8 3 -13 11 -11 17 1
6 -2 11 -8 11 -5 0 -10 -4 -10 -9z"/>
<path d="M4105 4409 c-4 -6 -4 -13 -1 -16 3 -4 6 -1 6 6 0 7 5 9 12 5 7 -4 8
-3 4 4 -9 15 -13 15 -21 1z"/>
<path d="M4186 4211 c-7 -11 22 -23 35 -15 5 3 7 10 4 15 -8 12 -32 12 -39 0z"/>
<path d="M4250 3971 c0 -6 5 -13 10 -16 6 -3 10 1 10 9 0 9 -4 16 -10 16 -5 0
-10 -4 -10 -9z"/>
<path d="M4247 3789 c7 -7 15 -10 18 -7 3 3 -2 9 -12 12 -14 6 -15 5 -6 -5z"/>
</g>
</svg>
